<svg id="Layer_1" data-name="Layer 1" xmlns="http://www.w3.org/2000/svg" viewBox="0 0 1349.93 846.87"><defs><style>.cls-1{fill:#fff;stroke:#000;stroke-miterlimit:10;}.cls-2,.cls-3{fill:#b3b3b3;}.cls-3,.cls-5{font-size:400px;font-family:HarlowSolid, Harlow Solid Italic;font-style:italic;}.cls-4,.cls-5{fill:#ff0;}</style></defs><title>daniel_name</title><path class="cls-1" d="M237.36,273" transform="translate(-17.87 23.11)"/><path class="cls-2" d="M619.28,375.44l-56.46-50.23a2.43,2.43,0,0,0-2.18-.53l-73.38,18a2.4,2.4,0,0,1-2.77-3.3L514.8,270.2a2.38,2.38,0,0,0-.16-2.23l-39.83-64.22a2.41,2.41,0,0,1,2.28-3.66l75.2,7.45a2.41,2.41,0,0,0,2.07-.85L603.12,149a2.41,2.41,0,0,1,4.19,1l16.16,73.82a2.4,2.4,0,0,0,1.44,1.71l70,28.54a2.4,2.4,0,0,1,.31,4.3L630,296.55a2.4,2.4,0,0,0-1.19,1.9l-5.51,75.37A2.41,2.41,0,0,1,619.28,375.44Z" transform="translate(-17.87 23.11)"/><text class="cls-3" transform="translate(63 366.59)"><tspan xml:space="preserve">D  niel </tspan><tspan x="0" y="325" xml:space="preserve"> Gultom</tspan></text><path class="cls-4" d="M595.28,358.44l-56.46-50.23a2.43,2.43,0,0,0-2.18-.53l-73.38,18a2.4,2.4,0,0,1-2.77-3.3L490.8,253.2a2.38,2.38,0,0,0-.16-2.23l-39.83-64.22a2.41,2.41,0,0,1,2.28-3.66l75.2,7.45a2.41,2.41,0,0,0,2.07-.85L579.12,132a2.41,2.41,0,0,1,4.19,1l16.16,73.82a2.4,2.4,0,0,0,1.44,1.71l70,28.54a2.4,2.4,0,0,1,.31,4.3L606,279.55a2.4,2.4,0,0,0-1.19,1.9l-5.51,75.37A2.41,2.41,0,0,1,595.28,358.44Z" transform="translate(-17.87 23.11)"/><text class="cls-5" transform="translate(40 334.59)"><tspan xml:space="preserve">D  niel </tspan><tspan x="0" y="325" xml:space="preserve"> Gultom</tspan></text></svg>